<svg xmlns="http://www.w3.org/2000/svg" width="1200" height="720" viewBox="0 0 1200 720" role="img" aria-labelledby="title desc">
  <title id="title">Frontend Component Lab thumbnail</title>
  <desc id="desc">Abstract brutalist thumbnail with component panels.</desc>
  <rect width="1200" height="720" fill="#f4f0e6"/>
  <path d="M0 92h1200M0 252h1200M0 412h1200M0 572h1200M152 0v720M432 0v720M712 0v720M992 0v720" stroke="#111" stroke-width="3" opacity=".14"/>
  <rect x="92" y="88" width="464" height="328" fill="#ffde59" stroke="#111" stroke-width="10"/>
  <rect x="642" y="134" width="394" height="392" fill="#48c7f7" stroke="#111" stroke-width="10"/>
  <rect x="178" y="168" width="292" height="54" fill="#111"/>
  <rect x="178" y="258" width="194" height="32" fill="#111"/>
  <rect x="178" y="316" width="270" height="32" fill="#111"/>
  <circle cx="746" cy="246" r="58" fill="#ff5d8f" stroke="#111" stroke-width="10"/>
  <rect x="810" y="342" width="132" height="132" fill="#f4f0e6" stroke="#111" stroke-width="10"/>
  <path d="M216 506h520" stroke="#111" stroke-width="18"/>
  <path d="M216 566h340" stroke="#111" stroke-width="18"/>
</svg>
